<?xml version="1.0" standalone="no"?>
<!DOCTYPE svg PUBLIC "-//W3C//DTD SVG 20010904//EN"
 "http://www.w3.org/TR/2001/REC-SVG-20010904/DTD/svg10.dtd">
<svg version="1.0" xmlns="http://www.w3.org/2000/svg"
 width="700.000000pt" height="700.000000pt" viewBox="0 0 700.000000 700.000000"
 preserveAspectRatio="xMidYMid meet">
<metadata>
Created by potrace 1.14, written by Peter Selinger 2001-2017
</metadata>
<g transform="translate(0.000000,700.000000) scale(0.100000,-0.100000)"
fill="#000000" stroke="none">
<path d="M3278 6996 c-1 -2 -39 -6 -83 -10 -547 -42 -1121 -240 -1605 -554
-78 -50 -318 -227 -330 -242 -3 -4 -41 -38 -85 -77 -271 -237 -524 -548 -707
-868 -168 -294 -297 -611 -364 -895 -18 -79 -54 -254 -59 -290 -3 -25 -8 -56
-11 -70 -35 -177 -40 -686 -9 -907 10 -67 14 -99 20 -148 4 -27 10 -66 15 -85
5 -19 12 -48 14 -65 28 -156 113 -435 188 -615 192 -459 461 -852 823 -1200
61 -59 101 -95 205 -184 45 -39 213 -160 300 -217 312 -204 649 -354 1009
-450 62 -17 123 -33 135 -35 11 -2 32 -6 46 -9 60 -13 249 -45 290 -49 246
-28 634 -28 858 0 101 12 300 49 387 71 55 14 108 27 119 29 39 7 346 114 399
139 31 14 58 25 62 25 3 0 65 29 138 65 710 347 1289 932 1626 1640 149 313
273 725 306 1020 4 33 9 69 11 80 26 130 25 612 -1 830 -80 665 -375 1337
-808 1840 -193 224 -447 456 -652 595 -27 18 -52 36 -55 39 -6 7 -11 10 -168
105 -357 216 -768 370 -1181 441 -79 14 -172 28 -205 31 -34 3 -72 8 -86 11
-27 5 -536 14 -542 9z m527 -349 c17 -3 59 -8 95 -12 35 -3 67 -8 70 -10 3 -1
28 -6 55 -9 28 -4 57 -9 65 -11 8 -2 31 -7 50 -10 64 -11 294 -74 395 -109
1003 -347 1769 -1182 2029 -2213 14 -54 27 -109 29 -123 55 -301 62 -377 62
-650 0 -184 -8 -337 -19 -396 -2 -12 -7 -45 -11 -74 -7 -54 -10 -75 -20 -120
-3 -14 -7 -34 -9 -46 -91 -478 -363 -1039 -683 -1405 -316 -362 -632 -606
-1038 -804 -271 -132 -632 -244 -900 -279 -22 -3 -62 -8 -90 -12 -27 -3 -61
-8 -75 -10 -52 -9 -488 -11 -570 -3 -212 20 -363 46 -545 94 -381 99 -720 260
-1045 494 -114 82 -114 82 -240 193 -175 154 -295 283 -429 463 -342 455 -533
922 -615 1500 -14 99 -18 164 -21 370 -3 244 8 390 42 575 8 47 17 96 20 110
13 72 67 269 102 371 328 950 1077 1685 2026 1989 114 36 318 87 385 96 25 3
48 8 51 10 3 1 28 6 55 9 27 4 59 8 70 10 12 2 61 6 110 10 49 4 91 9 93 11 5
5 472 -4 506 -9z"/>
<path d="M4080 6398 c-51 -9 -88 -33 -110 -71 -14 -26 -9 -69 26 -219 12 -52
21 -100 28 -148 3 -19 8 -46 10 -60 34 -179 49 -510 34 -720 -17 -230 -70
-463 -150 -663 -22 -53 -37 -101 -34 -106 3 -5 38 -25 78 -46 125 -63 260
-182 336 -295 20 -30 40 -57 43 -60 3 -3 8 -13 12 -23 8 -22 13 -19 108 63
268 232 604 566 790 785 19 22 39 45 45 50 38 33 266 331 284 370 59 130 42
257 -56 405 -146 222 -484 456 -894 620 -221 88 -445 136 -550 118z"/>
<path d="M2610 6333 c-104 -14 -233 -49 -340 -94 -181 -74 -519 -280 -618
-376 -7 -7 -17 -13 -21 -13 -12 0 -244 -230 -279 -276 -48 -62 -83 -140 -85
-184 -3 -74 16 -87 234 -161 107 -36 210 -72 229 -81 19 -8 64 -28 100 -43
317 -135 607 -327 833 -550 78 -78 204 -223 225 -262 7 -11 19 -7 63 22 94 63
238 126 321 140 17 3 34 8 38 10 7 4 105 16 170 20 19 1 38 3 41 4 3 0 2 20
-3 44 -4 23 -22 112 -39 197 -28 143 -101 443 -133 550 -8 25 -24 79 -36 120
-71 241 -195 588 -256 716 -47 99 -144 186 -223 201 -14 2 -29 7 -34 10 -10 6
-151 11 -187 6z"/>
<path d="M6155 4501 c-11 -5 -54 -40 -94 -77 -183 -170 -455 -375 -623 -470
-241 -136 -547 -256 -732 -288 -16 -3 -52 -10 -80 -16 -28 -5 -71 -12 -96 -14
-25 -2 -48 -5 -51 -5 -3 -1 -3 -20 0 -43 11 -75 2 -219 -20 -303 -5 -22 -12
-49 -14 -60 -8 -34 -47 -127 -77 -184 -16 -29 -28 -54 -26 -56 20 -14 306
-109 508 -169 146 -43 445 -118 519 -131 19 -3 37 -8 40 -10 4 -2 26 -6 51
-10 25 -4 47 -8 50 -10 3 -2 21 -6 40 -9 19 -3 44 -7 55 -10 11 -2 63 -11 115
-20 52 -9 104 -18 115 -20 182 -34 294 -24 385 34 154 100 250 334 277 675 10
137 4 429 -11 512 -2 10 -7 43 -10 73 -4 30 -11 78 -17 105 -5 28 -11 60 -14
73 -10 54 -48 181 -72 242 -59 149 -144 223 -218 191z"/>
<path d="M900 4420 c-101 -18 -206 -102 -268 -213 -42 -74 -88 -215 -107 -326
-82 -467 19 -1172 192 -1345 64 -63 115 -58 199 21 365 342 744 580 1124 707
113 38 280 79 370 92 30 4 60 8 65 9 6 1 20 3 33 3 14 1 20 6 17 13 -9 13 -9
203 0 249 3 19 8 49 11 65 11 62 47 166 84 239 42 84 43 81 -35 109 -300 109
-738 232 -1039 291 -374 74 -568 100 -646 86z"/>
<path d="M3388 4285 c-2 -2 -21 -6 -43 -9 -87 -14 -201 -62 -291 -122 l-50
-35 55 -112 c31 -62 57 -114 58 -115 1 -2 32 17 68 44 95 67 178 96 295 100
91 4 95 5 94 26 -1 13 -5 61 -9 108 -4 47 -7 93 -7 103 1 16 -8 18 -83 16 -46
-1 -86 -3 -87 -4z"/>
<path d="M3720 4137 c-36 -56 -65 -105 -65 -110 0 -5 18 -16 40 -25 58 -22
136 -74 183 -120 42 -41 112 -142 112 -162 0 -5 7 -10 15 -10 13 0 49 24 204
136 6 5 -49 96 -87 144 -73 92 -166 167 -279 224 -29 14 -54 26 -55 25 -2 0
-32 -46 -68 -102z"/>
<path d="M2814 3894 c-37 -62 -80 -178 -92 -244 -12 -66 -14 -258 -3 -265 5
-2 55 -7 112 -10 57 -3 111 -8 120 -11 14 -4 15 12 15 123 0 140 14 194 77
296 16 26 27 50 25 52 -6 6 -216 105 -222 105 -3 0 -17 -21 -32 -46z"/>
<path d="M3389 3829 c-151 -53 -239 -182 -234 -340 4 -117 60 -218 154 -278
91 -59 192 -72 295 -41 251 78 325 396 135 581 -89 86 -234 119 -350 78z"/>
<path d="M4043 3632 c-7 -5 -10 -43 -8 -107 4 -131 -22 -227 -85 -320 -11 -16
-20 -33 -20 -36 0 -6 58 -36 164 -84 58 -26 60 -27 74 -9 28 37 81 160 100
235 21 83 29 294 11 304 -5 4 -55 9 -111 11 -56 3 -104 7 -108 9 -3 2 -11 1
-17 -3z"/>
<path d="M2879 3219 c-46 -34 -86 -63 -88 -65 -2 -2 9 -25 24 -51 73 -127 180
-229 317 -303 l77 -41 71 107 c39 58 68 110 63 114 -4 4 -24 13 -43 20 -97 37
-207 133 -261 228 -23 38 -36 52 -53 52 -12 0 -60 -28 -107 -61z"/>
<path d="M3785 3054 c-78 -43 -238 -96 -284 -94 -20 1 -46 2 -57 1 -24 -1 -23
7 -9 -151 4 -41 8 -81 8 -89 0 -10 20 -12 96 -8 98 5 104 6 180 27 92 25 271
120 271 145 0 6 -7 24 -16 40 -9 17 -32 60 -51 98 -41 79 -49 81 -138 31z"/>
<path d="M2595 2999 c-33 -28 -74 -63 -91 -78 -156 -131 -494 -463 -649 -635
-44 -49 -85 -94 -90 -100 -6 -6 -35 -40 -65 -76 -30 -35 -63 -73 -73 -85 -38
-42 -174 -221 -195 -256 -56 -92 -61 -221 -13 -333 48 -110 171 -252 314 -363
212 -164 554 -338 817 -416 244 -72 394 -77 456 -15 36 35 37 67 10 191 -27
119 -53 263 -62 337 -3 25 -7 56 -9 70 -19 128 -25 430 -12 598 6 80 32 245
51 332 3 14 8 35 10 48 10 49 60 201 92 281 19 47 31 88 27 92 -5 4 -35 22
-68 39 -176 94 -377 296 -387 388 l-3 32 -60 -51z"/>
<path d="M4060 2693 c-145 -101 -349 -170 -516 -175 -32 -1 -62 -3 -65 -4 -3
-2 0 -36 8 -76 7 -40 16 -89 19 -108 3 -19 23 -111 45 -205 22 -93 42 -179 44
-190 47 -225 280 -919 363 -1081 44 -87 152 -164 256 -183 257 -48 697 127
1091 432 262 203 428 402 427 511 -1 72 -20 85 -218 151 -214 72 -280 98 -443
176 -390 185 -706 430 -920 712 -24 32 -47 59 -50 61 -3 2 -22 -7 -41 -21z"/>
</g>
</svg>
